Run_30002
nRows=4
nColumns=164

# SIMM Motion File Header:
name Run_30002
datacolumns 164
datarows 4
otherdata 1
range 0.05000000 0.08000000
endheader
time	pelvis_tilt	pelvis_list	pelvis_rotation	pelvis_tx	pelvis_ty	pelvis_tz	hip_flexion_r	hip_adduction_r	hip_rotation_r	knee_angle_r	ankle_angle_r	hip_flexion_l	hip_adduction_l	hip_rotation_l	knee_angle_l	ankle_angle_l	lumbar_extension	lumbar_bending	lumbar_rotation	arm_flex_r	arm_add_r	arm_rot_r	elbow_flex_r	pro_sup_r	arm_flex_l	arm_add_l	arm_rot_l	elbow_flex_l	pro_sup_l	subtalar_angle_r	mtp_angle_r	subtalar_angle_l	mtp_angle_l	wrist_flex_r	wrist_dev_r	wrist_flex_l	wrist_dev_l	LASI_tx	LASI_ty	LASI_tz	RASI_tx	RASI_ty	RASI_tz	LPSI_tx	LPSI_ty	LPSI_tz	RPSI_tx	RPSI_ty	RPSI_tz	RTH1_tx	RTH1_ty	RTH1_tz	RTH2_tx	RTH2_ty	RTH2_tz	RTH3_tx	RTH3_ty	RTH3_tz	LTH1_tx	LTH1_ty	LTH1_tz	LTH2_tx	LTH2_ty	LTH2_tz	LTH3_tx	LTH3_ty	LTH3_tz	RTB1_tx	RTB1_ty	RTB1_tz	RTB2_tx	RTB2_ty	RTB2_tz	RTB3_tx	RTB3_ty	RTB3_tz	LTB1_tx	LTB1_ty	LTB1_tz	LTB2_tx	LTB2_ty	LTB2_tz	LTB3_tx	LTB3_ty	LTB3_tz	RCAL_tx	RCAL_ty	RCAL_tz	RTOE_tx	RTOE_ty	RTOE_tz	RMT5_tx	RMT5_ty	RMT5_tz	LCAL_tx	LCAL_ty	LCAL_tz	LTOE_tx	LTOE_ty	LTOE_tz	LMT5_tx	LMT5_ty	LMT5_tz	LACR_tx	LACR_ty	LACR_tz	RACR_tx	RACR_ty	RACR_tz	CLAV_tx	CLAV_ty	CLAV_tz	C7_tx	C7_ty	C7_tz	RUA1_tx	RUA1_ty	RUA1_tz	RUA2_tx	RUA2_ty	RUA2_tz	RUA3_tx	RUA3_ty	RUA3_tz	RLEL_tx	RLEL_ty	RLEL_tz	RMEL_tx	RMEL_ty	RMEL_tz	LUA1_tx	LUA1_ty	LUA1_tz	LUA2_tx	LUA2_ty	LUA2_tz	LUA3_tx	LUA3_ty	LUA3_tz	LLEL_tx	LLEL_ty	LLEL_tz	LMEL_tx	LMEL_ty	LMEL_tz	RFAsuperior_tx	RFAsuperior_ty	RFAsuperior_tz	RFAradius_tx	RFAradius_ty	RFAradius_tz	RFAulna_tx	RFAulna_ty	RFAulna_tz	LFAsuperior_tx	LFAsuperior_ty	LFAsuperior_tz	LFAradius_tx	LFAradius_ty	LFAradius_tz	LFAulna_tx	LFAulna_ty	LFAulna_tz
      0.05000000	    -14.56040418	      2.05955998	      6.18283441	      0.96491649	      1.03630210	     -0.34998563	     -4.19596326	      1.86198965	     -6.30383958	    -16.49208302	    -13.07590824	     46.91869497	      7.39830414	     -2.30055173	    -47.67740809	      6.09966579	      3.02972083	     -1.60431510	      9.49211649	    -17.39462397	    -18.25917859	     -5.24272619	    124.65826775	    118.04488967	    -46.37658740	    -15.14740987	     -9.38899895	    119.01154738	    102.28105686	      0.00000000	      0.00000000	      0.00000000	      0.00000000	      0.00000000	      0.00000000	      0.00000000	      0.00000000	      0.96859829	      1.08309137	     -0.47434834	      0.99453372	      1.06156389	     -0.22508352	      0.81906931	      1.14474024	     -0.39001754	      0.83275069	      1.13446372	     -0.27745303	      0.89787924	      0.95025795	     -0.17436755	      0.79610876	      0.82906075	     -0.19106548	      0.77879930	      0.67617820	     -0.21399767	      0.93347022	      0.96788138	     -0.53080150	      0.93625229	      0.80507585	     -0.47804778	      1.04876084	      0.71404870	     -0.47760678	      0.70594149	      0.42603430	     -0.29078385	      0.61600151	      0.42381864	     -0.22220802	      0.58479772	      0.28015708	     -0.30760106	      1.13827804	      0.50384418	     -0.42439485	      1.02410913	      0.41677031	     -0.46042398	      1.06433279	      0.29938814	     -0.40607421	      0.42193985	      0.25104121	     -0.30168961	      0.57257107	      0.07330262	     -0.35375331	      0.52599428	      0.07609164	     -0.25536541	      0.91735781	      0.19017324	     -0.35674798	      1.14813531	      0.13991868	     -0.38843376	      1.07938100	      0.10049475	     -0.46643166	      0.92579313	      1.57487521	     -0.48751789	      1.01752641	      1.54026126	     -0.18191911	      1.03634570	      1.51317613	     -0.32202826	      0.91316196	      1.58275638	     -0.32348575	      0.93793411	      1.43652403	     -0.09392660	      0.98918578	      1.37583678	     -0.09032814	      0.94356287	      1.29451449	     -0.03555399	      0.92682912	      1.22827151	     -0.01109239	      0.89744738	      1.21000822	     -0.09600435	      0.79797199	      1.51881991	     -0.50974180	      0.79339056	      1.44288767	     -0.55052637	      0.69992572	      1.41047967	     -0.55050918	      0.65673850	      1.35511226	     -0.56522357	      0.66081081	      1.33011061	     -0.47832005	      1.02175335	      1.21675777	     -0.06221757	      1.11626313	      1.25685233	     -0.20925191	      1.14130132	      1.20468617	     -0.17060817	      0.70724097	      1.28894567	     -0.57827510	      0.88652345	      1.24257418	     -0.53578545	      0.85512316	      1.18555423	     -0.56633859
      0.06000000	    -14.40024532	      1.98427175	      6.75740686	      0.96672853	      1.04085255	     -0.35121477	     -5.64343400	      1.90440914	     -7.27618248	    -16.23119693	    -16.58041427	     45.29139572	      8.18447185	     -1.85962822	    -41.01031853	      5.16210431	      2.94634496	     -1.62111030	      9.20047824	    -17.84792025	    -18.40861666	     -4.77251934	    125.68119892	    118.34612783	    -46.64841871	    -14.61977428	     -9.96275066	    119.76570931	    102.28575162	      0.00000000	      0.00000000	      0.00000000	      0.00000000	      0.00000000	      0.00000000	      0.00000000	      0.00000000	      0.96893095	      1.08738780	     -0.47475292	      0.99710300	      1.06524431	     -0.22599830	      0.82020948	      1.14822824	     -0.38930867	      0.83489405	      1.13828210	     -0.27712347	      0.90018095	      0.95495681	     -0.17372320	      0.79564293	      0.83618158	     -0.19088435	      0.77421689	      0.68417588	     -0.21339477	      0.93323468	      0.97086133	     -0.53149283	      0.93193939	      0.80693288	     -0.47725640	      1.04316828	      0.71373543	     -0.47656224	      0.69665340	      0.43467736	     -0.28860576	      0.60569936	      0.43453888	     -0.22079300	      0.57359857	      0.28986697	     -0.30467112	      1.14124856	      0.50546364	     -0.42190089	      1.03597050	      0.40869420	     -0.45890002	      1.08492851	      0.29595860	     -0.40254215	      0.41410646	      0.26835378	     -0.29828692	      0.55005989	      0.07822122	     -0.35261537	      0.50483157	      0.08443114	     -0.25414339	      0.94760979	      0.17477632	     -0.35465957	      1.18211497	      0.14433295	     -0.37990269	      1.11896292	      0.09673424	     -0.45811591	      0.92608716	      1.57951377	     -0.48788837	      1.01950161	      1.54468443	     -0.18320936	      1.03723788	      1.51721944	     -0.32329269	      0.91426599	      1.58673626	     -0.32363355	      0.93996883	      1.44185812	     -0.09435771	      0.99116905	      1.38086065	     -0.09106283	      0.94561429	      1.30029090	     -0.03518106	      0.92882904	      1.23390990	     -0.01051478	      0.89821946	      1.21569323	     -0.09526431	      0.79784021	      1.52431074	     -0.50870285	      0.79263574	      1.44790977	     -0.54910995	      0.69909710	      1.41525108	     -0.54753862	      0.65589758	      1.35958172	     -0.56136323	      0.66114034	      1.33480989	     -0.47412605	      1.02258314	      1.22362174	     -0.06346513	      1.11402005	      1.26481193	     -0.21167890	      1.14099310	      1.21242226	     -0.17401900	      0.70674456	      1.29413474	     -0.57535222	      0.88737608	      1.24991768	     -0.53595803	      0.85617894	      1.19258488	     -0.56622911
      0.07000000	    -14.19482548	      1.82521845	      7.19121719	      0.96853119	      1.04449213	     -0.35237028	     -6.82821958	      2.02269361	     -7.97417958	    -16.56790999	    -19.70740530	     43.40521200	      8.85653573	     -1.08452607	    -34.22726601	      3.87133928	      2.83050410	     -1.50758837	      9.01645502	    -18.36402791	    -18.64714850	     -4.29778090	    126.50018689	    118.20924651	    -46.83379343	    -14.06520881	    -10.47680589	    120.47542128	    102.40701905	      0.00000000	      0.00000000	      0.00000000	      0.00000000	      0.00000000	      0.00000000	      0.00000000	      0.00000000	      0.96933025	      1.09062430	     -0.47511040	      0.99940572	      1.06827033	     -0.22711198	      0.82128281	      1.15095393	     -0.38884772	      0.83676982	      1.14151175	     -0.27690599	      0.90238814	      0.95908595	     -0.17296748	      0.79568224	      0.84225501	     -0.19106652	      0.77126723	      0.69083690	     -0.21292577	      0.93300051	      0.97263387	     -0.53182188	      0.92816197	      0.80801325	     -0.47642285	      1.03755539	      0.71256813	     -0.47570858	      0.68891348	      0.44190086	     -0.28688161	      0.59754523	      0.44413521	     -0.21927243	      0.56293644	      0.29921188	     -0.30200358	      1.14313169	      0.50631361	     -0.41967091	      1.04677484	      0.40085358	     -0.45733296	      1.10389016	      0.29287596	     -0.39905149	      0.40660184	      0.28538672	     -0.29425489	      0.52760007	      0.08424514	     -0.35122913	      0.48362798	      0.09313245	     -0.25309744	      0.97667315	      0.16073646	     -0.35261620	      1.21353844	      0.14995199	     -0.37138998	      1.15669987	      0.09398720	     -0.44899353	      0.92632869	      1.58337725	     -0.48811000	      1.02126909	      1.54835154	     -0.18446008	      1.03816072	      1.52054790	     -0.32452751	      0.91530570	      1.58998416	     -0.32386082	      0.94190302	      1.44645863	     -0.09475384	      0.99300481	      1.38516244	     -0.09167777	      0.94742758	      1.30533378	     -0.03475307	      0.93054485	      1.23890283	     -0.00981239	      0.89865883	      1.22068424	     -0.09424098	      0.79773010	      1.52880633	     -0.50790140	      0.79211585	      1.45190048	     -0.54774254	      0.69857004	      1.41890041	     -0.54475936	      0.65540692	      1.36292889	     -0.55769628	      0.66203027	      1.33813570	     -0.47041606	      1.02322511	      1.22910634	     -0.06443796	      1.11178589	      1.27099378	     -0.21349018	      1.14011264	      1.21811254	     -0.17701330	      0.70662789	      1.29822831	     -0.57260818	      0.88849998	      1.25615119	     -0.53609738	      0.85756577	      1.19854131	     -0.56620321
      0.08000000	    -14.00592974	      1.55952093	      7.43434118	      0.97007800	      1.04681172	     -0.35333704	     -7.44609710	      2.20595035	     -8.13525715	    -18.00347783	    -21.98140048	     41.48562166	      9.32667480	      0.02191178	    -27.75771733	      2.63151336	      2.73553980	     -1.24177715	      8.96504004	    -18.92813020	    -18.97580400	     -3.81038475	    126.92098980	    117.71217218	    -46.86167255	    -13.47019919	    -10.91724509	    121.07618037	    102.68590518	      0.00000000	      0.00000000	      0.00000000	      0.00000000	      0.00000000	      0.00000000	      0.00000000	      0.00000000	      0.96981655	      1.09241753	     -0.47524831	      1.00128265	      1.07044705	     -0.22832195	      0.82224845	      1.15253061	     -0.38876699	      0.83823374	      1.14380395	     -0.27687760	      0.90445660	      0.96221147	     -0.17227838	      0.79663165	      0.84640289	     -0.19155961	      0.77099131	      0.69511122	     -0.21262311	      0.93287717	      0.97281595	     -0.53158303	      0.92522594	      0.80809222	     -0.47551281	      1.03191661	      0.71018423	     -0.47512275	      0.68343801	      0.44693478	     -0.28586959	      0.59263661	      0.45197297	     -0.21752202	      0.55293242	      0.30809155	     -0.29968506	      1.14343181	      0.50599407	     -0.41790347	      1.05559396	      0.39348275	     -0.45552473	      1.12016263	      0.29030803	     -0.39585676	      0.39913883	      0.30195293	     -0.28938614	      0.50536810	      0.09225038	     -0.34966776	      0.46262870	      0.10275423	     -0.25215955	      1.00345378	      0.14883508	     -0.35070677	      1.24059845	      0.15725449	     -0.36299751	      1.19107269	      0.09293936	     -0.43897760	      0.92651719	      1.58600020	     -0.48823906	      1.02271845	      1.55085637	     -0.18562878	      1.03910935	      1.52280241	     -0.32568962	      0.91624190	      1.59213122	     -0.32425002	      0.94357371	      1.44986912	     -0.09514893	      0.99450403	      1.38834397	     -0.09213891	      0.94880898	      1.30923344	     -0.03426503	      0.93176253	      1.24286452	     -0.00897054	      0.89859808	      1.22458066	     -0.09288329	      0.79766093	      1.53175036	     -0.50743537	      0.79194145	      1.45429649	     -0.54645856	      0.69849292	      1.42083882	     -0.54230017	      0.65544661	      1.36453083	     -0.55435480	      0.66366386	      1.33944249	     -0.46736529	      1.02352209	      1.23245610	     -0.06500320	      1.10966611	      1.27416362	     -0.21471549	      1.13851843	      1.22059705	     -0.17939287	      0.70708799	      1.30063098	     -0.57014455	      0.89004457	      1.26066759	     -0.53622167	      0.85944444	      1.20283389	     -0.56631772
